<?xml version="1.0" encoding="utf-8"?>
<svg version="1.1" xmlns:xlink="http://www.w3.org/1999/xlink" width="108px" height="96px" xmlns="http://www.w3.org/2000/svg">
  <g transform="matrix(1 0 0 1 -73 -32 )">
    <path d="M 73 32  L 181 32  L 181 128  L 73 128  L 73 32  " fill-rule="nonzero" fill="#cccccc" stroke="none" />
    <path d="M 80 39  L 174 39  L 174 121  L 80 121  L 80 39  " fill-rule="nonzero" fill="#ffffff" stroke="none" />
    <path d="M 136.36 60.8  C 132.328 60.8  129.16 57.632  129.16 53.6  C 129.16 49.568  132.328 46.4  136.36 46.4  C 140.392 46.4  143.56 49.568  143.56 53.6  C 143.56 57.632  140.392 60.8  136.36 60.8  " fill-rule="nonzero" fill="#cccccc" stroke="none" />
    <path d="M 83 119  L 83 76.65  L 105.25 57.4  L 136.4 77.9333333333333  L 154.2 68.95  L 172 77.9333333333333  L 172 119  L 83 119  " fill-rule="nonzero" fill="#169bd5" stroke="none" />
  </g>
</svg>